<?xml version="1.0" standalone="no"?>
<!DOCTYPE svg PUBLIC "-//W3C//DTD SVG 20010904//EN"
 "http://www.w3.org/TR/2001/REC-SVG-20010904/DTD/svg10.dtd">
<svg version="1.0" xmlns="http://www.w3.org/2000/svg"
 width="698.000000pt" height="698.000000pt" viewBox="0 0 698.000000 698.000000"
 preserveAspectRatio="xMidYMid meet">

<g transform="translate(0.000000,698.000000) scale(0.100000,-0.100000)"
fill="#000000" stroke="none">
<path d="M3310 5109 c-479 -46 -914 -310 -1191 -724 -150 -224 -252 -510 -301
-850 -19 -134 -16 -482 6 -630 73 -482 271 -885 583 -1185 132 -128 260 -219
416 -300 l117 -60 -352 0 c-398 0 -439 -5 -559 -66 -114 -57 -210 -159 -282
-300 -31 -61 -67 -149 -81 -195 l-24 -84 87 -56 c440 -285 871 -445 1363 -509
654 -84 1291 29 1877 331 192 99 371 214 371 239 0 10 -12 53 -26 96 -111 341
-309 523 -590 541 l-90 6 71 71 c92 92 127 162 133 266 4 74 -3 107 -48 215
-12 29 -9 35 54 134 136 214 210 405 265 680 53 261 65 384 64 636 -2 412 -36
600 -157 850 -119 246 -333 488 -563 638 -309 202 -730 296 -1143 256z m-441
-1163 c169 -85 399 -168 576 -206 83 -18 142 -23 340 -27 193 -3 256 -8 325
-24 229 -54 383 -191 444 -399 9 -30 25 -110 36 -177 10 -68 22 -127 25 -133
9 -14 64 -12 121 5 65 19 152 75 253 165 l81 71 0 -83 c0 -65 -6 -101 -29
-164 -50 -146 -170 -295 -281 -351 l-55 -28 -40 -140 c-50 -171 -77 -232 -162
-358 -118 -176 -302 -317 -502 -385 l-54 -18 2 -260 c1 -158 6 -277 13 -306
10 -41 9 -52 -8 -85 -27 -53 -139 -163 -200 -195 -100 -54 -259 -74 -374 -47
-168 39 -322 188 -365 355 -18 72 -20 138 -10 360 l8 171 -95 45 c-111 53
-223 126 -331 217 -157 131 -231 252 -292 476 -47 170 -49 173 -93 192 -120
50 -242 204 -303 382 -33 95 -21 265 22 317 9 11 16 10 36 -6 60 -47 187 -9
309 92 70 58 103 99 158 192 60 102 129 187 212 266 70 65 141 120 156 120 5
0 39 -15 77 -34z"/>
</g>
</svg>
