<?xml version="1.0" standalone="no"?>
<!DOCTYPE svg PUBLIC "-//W3C//DTD SVG 20010904//EN"
 "http://www.w3.org/TR/2001/REC-SVG-20010904/DTD/svg10.dtd">
<svg version="1.0" xmlns="http://www.w3.org/2000/svg"
 width="989.000000pt" height="972.000000pt" viewBox="0 0 989.000000 972.000000"
 preserveAspectRatio="xMidYMid meet">

<g transform="translate(0.000000,972.000000) scale(0.100000,-0.100000)"
fill="#000000" stroke="none">
<path d="M5290 7194 c-97 -12 -256 -47 -341 -75 -108 -35 -289 -119 -374 -173
l-58 -38 -106 51 c-170 80 -244 96 -446 95 -156 0 -177 -2 -259 -28 -189 -57
-355 -164 -518 -334 -175 -180 -245 -311 -368 -682 -91 -272 -117 -369 -170
-639 -92 -465 -299 -927 -673 -1500 -192 -294 -214 -352 -224 -581 -8 -212 27
-369 116 -520 55 -92 126 -158 254 -237 224 -138 383 -345 467 -609 l23 -72
-56 -57 c-120 -123 -225 -309 -299 -527 -43 -127 -43 -128 -23 -147 30 -30
218 -163 316 -223 82 -51 88 -56 115 -118 15 -36 55 -105 88 -154 306 -457
878 -607 1452 -380 l111 43 84 -9 c293 -33 784 -31 1094 5 352 41 679 113
1008 222 59 20 111 32 115 28 4 -3 7 -43 7 -88 0 -72 -4 -91 -33 -151 -42 -89
-88 -145 -154 -188 -59 -39 -154 -77 -196 -79 l-27 -1 25 -8 c14 -4 67 -8 118
-9 280 -3 521 134 670 383 53 86 109 225 127 312 9 43 17 79 18 80 1 0 43 22
92 48 191 102 365 210 365 227 0 28 -66 248 -100 334 -17 44 -49 113 -71 154
-39 72 -39 74 -21 95 171 196 290 324 445 482 174 178 190 198 227 277 97 207
113 464 46 731 -32 122 -78 217 -183 372 -200 298 -315 514 -411 774 -94 255
-241 718 -317 996 -98 362 -267 866 -354 1059 -17 37 -56 104 -85 149 -234
348 -616 602 -1034 687 -95 19 -396 34 -482 23z m-260 -779 c80 -21 164 -66
263 -141 247 -186 375 -464 426 -922 33 -295 95 -530 212 -797 160 -369 259
-518 529 -800 83 -86 150 -159 150 -163 0 -13 -117 -181 -175 -252 -74 -91
-255 -264 -347 -333 -100 -74 -216 -146 -322 -199 l-84 -41 -5 -361 c-4 -336
-6 -366 -26 -436 -29 -99 -80 -193 -144 -268 -145 -171 -319 -253 -542 -255
-140 -2 -240 20 -364 80 -80 38 -108 59 -186 137 -106 105 -164 196 -206 322
l-29 85 0 328 0 327 -97 43 c-257 114 -511 298 -687 498 -49 56 -115 154 -210
312 -137 231 -137 231 -172 231 -71 0 -141 63 -195 177 -64 133 -91 345 -60
463 32 118 94 156 192 115 13 -5 20 2 29 32 38 118 46 129 143 184 316 179
592 425 794 707 80 111 194 336 268 524 31 81 66 159 77 173 42 53 79 23 119
-97 l28 -82 24 56 c124 279 357 417 597 353z"/>
</g>
</svg>
